<?xml version="1.0" encoding="UTF-8" standalone="no"?>
<!-- Created with Inkscape (http://www.inkscape.org/) -->

<svg
   width="256"
   height="256"
   viewBox="0 0 67.733332 67.733333"
   version="1.1"
   id="svg1"
   inkscape:export-filename="derecha.png"
   inkscape:export-xdpi="96"
   inkscape:export-ydpi="96"
   inkscape:version="1.3 (0e150ed6c4, 2023-07-21)"
   sodipodi:docname="Plastilla2.svg"
   xmlns:inkscape="http://www.inkscape.org/namespaces/inkscape"
   xmlns:sodipodi="http://sodipodi.sourceforge.net/DTD/sodipodi-0.dtd"
   xmlns="http://www.w3.org/2000/svg"
   xmlns:svg="http://www.w3.org/2000/svg">
  <sodipodi:namedview
     id="namedview1"
     pagecolor="#ffffff"
     bordercolor="#000000"
     borderopacity="0.25"
     inkscape:showpageshadow="2"
     inkscape:pageopacity="0.0"
     inkscape:pagecheckerboard="0"
     inkscape:deskcolor="#d1d1d1"
     inkscape:document-units="mm"
     inkscape:zoom="0.81517206"
     inkscape:cx="151.50176"
     inkscape:cy="49.069395"
     inkscape:window-width="1080"
     inkscape:window-height="1852"
     inkscape:window-x="0"
     inkscape:window-y="0"
     inkscape:window-maximized="1"
     inkscape:current-layer="g2" />
  <defs
     id="defs1" />
  <g
     inkscape:label="Capa 1"
     inkscape:groupmode="layer"
     id="layer1">
    <g
       id="g2"
       transform="matrix(0.21215675,0,0,0.21215675,50.439349,86.320537)">
      <path
         id="path3-3"
         d="m -206.4913,-613.7736 v -29.0195 l -8.92139,-8.6861 -8.92158,8.6861 v 29.0195 l 8.92143,8.6861 8.92154,-8.6861"
         style="fill:#4d4d4d;fill-opacity:1;fill-rule:nonzero;stroke:none;stroke-width:0.0352778" />
      <path
         id="path4-67"
         d="m -156.97964,-613.7736 v -29.0195 l -8.9214,-8.6861 -8.92139,8.6861 v 29.0195 l 8.92139,8.6861 8.9214,-8.6861"
         style="fill:#ffffff;fill-opacity:1;fill-rule:nonzero;stroke:none;stroke-width:0.0352778" />
      <path
         id="path5"
         d="m -205.16662,-644.11778 h 29.01951 l 8.68609,-8.9214 -8.68609,-8.9214 h -29.01986 l -8.68578,8.9214 8.68613,8.9214"
         style="fill:#4d4d4d;fill-opacity:1;fill-rule:nonzero;stroke:none;stroke-width:0.0352778" />
      <path
         id="path6-53"
         d="m -205.16697,-594.60612 h 29.01986 l 8.68609,-8.9214 -8.68609,-8.9214 h -29.01986 l -8.68578,8.9214 8.68578,8.9214"
         style="fill:#4d4d4d;fill-opacity:1;fill-rule:nonzero;stroke:none;stroke-width:0.0352778" />
      <path
         id="path7-5"
         d="m -206.4913,-564.26194 v -29.0195 l -8.92139,-8.6861 -8.92158,8.6861 v 29.0195 l 8.92158,8.6861 8.92139,-8.6861"
         style="fill:#4d4d4d;fill-opacity:1;fill-rule:nonzero;stroke:none;stroke-width:0.0352778" />
      <path
         id="path8-6"
         d="m -156.97964,-564.26194 v -29.0195 l -8.9214,-8.6861 -8.92139,8.6861 v 29.0195 l 8.92139,8.6861 8.9214,-8.6861"
         style="fill:#ffffff;fill-opacity:1;fill-rule:nonzero;stroke:none;stroke-width:0.0352778" />
      <path
         id="path9-2"
         d="m -205.16697,-545.09443 h 29.01986 l 8.68609,-8.92143 -8.68609,-8.9214 h -29.01986 l -8.68578,8.9214 8.68578,8.92143"
         style="fill:#4d4d4d;fill-opacity:1;fill-rule:nonzero;stroke:none;stroke-width:0.0352778" />
      <path
         id="path10-9"
         d="m -126.44178,-613.7736 v -29.0195 l -8.92175,-8.6861 -8.9214,8.6861 v 29.0195 l 8.9214,8.6861 8.92175,-8.6861"
         style="fill:#4d4d4d;fill-opacity:1;fill-rule:nonzero;stroke:none;stroke-width:0.0352778" />
      <path
         id="path11-1"
         d="m -76.930474,-613.7736 v -29.0195 l -8.921398,-8.6861 -8.921397,8.6861 v 29.0195 l 8.921397,8.6861 8.921398,-8.6861"
         style="fill:#ffffff;fill-opacity:1;fill-rule:nonzero;stroke:none;stroke-width:0.0352778" />
      <path
         id="path12-27"
         d="m -125.11745,-644.11778 h 29.019501 l 8.686094,-8.9214 -8.686094,-8.9214 h -29.019501 l -8.6861,8.9214 8.6861,8.9214"
         style="fill:#ffffff;fill-opacity:1;fill-rule:nonzero;stroke:none;stroke-width:0.0352778" />
      <path
         id="path13-0"
         d="m -125.11745,-594.60612 h 29.019501 l 8.686094,-8.9214 -8.686094,-8.9214 h -29.019501 l -8.6861,8.9214 8.6861,8.9214"
         style="fill:#ffffff;fill-opacity:1;fill-rule:nonzero;stroke:none;stroke-width:0.0352778" />
      <path
         id="path14-9"
         d="m -126.44178,-564.26194 v -29.0195 l -8.9214,-8.6861 -8.92175,8.6861 v 29.0195 l 8.9214,8.6861 8.92175,-8.6861"
         style="fill:#ffffff;fill-opacity:1;fill-rule:nonzero;stroke:none;stroke-width:0.0352778" />
      <path
         id="path15-3"
         d="m -76.930474,-564.26194 v -29.0195 l -8.921398,-8.6861 -8.921397,8.6861 v 29.0195 l 8.921397,8.6861 8.921398,-8.6861"
         style="fill:#4d4d4d;fill-opacity:1;fill-rule:nonzero;stroke:none;stroke-width:0.0352778" />
      <path
         id="path16-60"
         d="m -125.11745,-545.09443 h 29.019501 l 8.686094,-8.92143 -8.686094,-8.9214 h -29.019501 l -8.6861,8.9214 8.6861,8.92143"
         style="fill:#ffffff;fill-opacity:1;fill-rule:nonzero;stroke:none;stroke-width:0.0352778" />
      <path
         id="path17-62"
         d="m -46.392616,-613.7736 v -29.0195 l -8.921751,-8.6861 -8.921398,8.6861 v 29.0195 l 8.921398,8.6861 8.921751,-8.6861"
         style="fill:#4d4d4d;fill-opacity:1;fill-rule:nonzero;stroke:none;stroke-width:0.0352778" />
      <path
         id="path18-6"
         d="m 3.119048,-613.7736 v -29.0195 l -8.9214005,-8.6861 -8.9214005,8.6861 v 29.0195 l 8.9214005,8.6861 8.9214005,-8.6861"
         style="fill:#ffffff;fill-opacity:1;fill-rule:nonzero;stroke:none;stroke-width:0.0352778" />
      <path
         id="path19-1"
         d="m -45.068293,-644.11778 h 29.01986 l 8.6860905,-8.9214 -8.6860905,-8.9214 h -29.01986 l -8.685738,8.9214 8.685738,8.9214"
         style="fill:#ffffff;fill-opacity:1;fill-rule:nonzero;stroke:none;stroke-width:0.0352778" />
      <path
         id="path20-8"
         d="m -45.068293,-594.60612 h 29.01986 l 8.6860905,-8.9214 -8.6860905,-8.9214 h -29.01986 l -8.685738,8.9214 8.685738,8.9214"
         style="fill:#ffffff;fill-opacity:1;fill-rule:nonzero;stroke:none;stroke-width:0.0352778" />
      <path
         id="path21-7"
         d="m -46.392616,-564.26194 v -29.0195 l -8.921398,-8.6861 -8.921751,8.6861 v 29.0195 l 8.921751,8.6861 8.921398,-8.6861"
         style="fill:#4d4d4d;fill-opacity:1;fill-rule:nonzero;stroke:none;stroke-width:0.0352778" />
      <path
         id="path22-9"
         d="m 3.119048,-564.26194 v -29.0195 l -8.9214005,-8.6861 -8.9214005,8.6861 v 29.0195 l 8.9214005,8.6861 8.9214005,-8.6861"
         style="fill:#ffffff;fill-opacity:1;fill-rule:nonzero;stroke:none;stroke-width:0.0352778" />
      <path
         id="path23-2"
         d="m -45.068293,-545.09443 h 29.01986 l 8.6860905,-8.92143 -8.6860905,-8.9214 h -29.01986 l -8.685738,8.9214 8.685738,8.92143"
         style="fill:#ffffff;fill-opacity:1;fill-rule:nonzero;stroke:none;stroke-width:0.0352778" />
      <path
         id="path24-02"
         d="m 33.656547,-614.15607 v -29.0195 l -8.9214,-8.6861 -8.921399,8.6861 v 29.0195 l 8.921399,8.6861 8.9214,-8.6861"
         style="fill:#ffffff;fill-opacity:1;fill-rule:nonzero;stroke:none;stroke-width:0.0352778" />
      <path
         id="path25-3"
         d="m 83.168207,-613.7736 v -29.0195 l -8.9214,-8.6861 -8.9214,8.6861 v 29.0195 l 8.9214,8.6861 8.9214,-8.6861"
         style="fill:#ffffff;fill-opacity:1;fill-rule:nonzero;stroke:none;stroke-width:0.0352778" />
      <path
         id="path26-7"
         d="m 34.981227,-644.11778 h 29.0195 l 8.6861,-8.9214 -8.6861,-8.9214 h -29.0195 l -8.68609,8.9214 8.68609,8.9214"
         style="fill:#4d4d4d;fill-opacity:1;fill-rule:nonzero;stroke:none;stroke-width:0.0352778" />
      <path
         id="path27-5"
         d="m 34.981227,-594.60612 h 29.0195 l 8.6861,-8.9214 -8.6861,-8.9214 h -29.0195 l -8.68609,8.9214 8.68609,8.9214"
         style="fill:#ffffff;fill-opacity:1;fill-rule:nonzero;stroke:none;stroke-width:0.0352778" />
      <path
         id="path28-9"
         d="m 33.656547,-564.26194 v -29.0195 l -8.9214,-8.6861 -8.921399,8.6861 v 29.0195 l 8.921399,8.6861 8.9214,-8.6861"
         style="fill:#4d4d4d;fill-opacity:1;fill-rule:nonzero;stroke:none;stroke-width:0.0352778" />
      <path
         id="path29-2"
         d="m 83.168207,-564.26194 v -29.0195 l -8.9214,-8.6861 -8.9214,8.6861 v 29.0195 l 8.9214,8.6861 8.9214,-8.6861"
         style="fill:#ffffff;fill-opacity:1;fill-rule:nonzero;stroke:none;stroke-width:0.0352778" />
      <path
         id="path30-28"
         d="m 34.981227,-545.09443 h 29.0195 l 8.6861,-8.92143 -8.6861,-8.9214 h -29.0195 l -8.68609,8.9214 8.68609,8.92143"
         style="fill:#4d4d4d;fill-opacity:1;fill-rule:nonzero;stroke:none;stroke-width:0.0352778" />
      <g
         id="g94"
         transform="matrix(19.250323,0,0,19.250323,-544.3986,-2335.8403)">
        <rect
           style="fill:#000000;stroke:none;stroke-width:1;stroke-linejoin:round;stroke-dasharray:none;stroke-opacity:1"
           id="rect90"
           width="0.86809367"
           height="11.95212"
           x="19.021009"
           y="67.412521" />
        <rect
           style="fill:#000000;stroke:#000000;stroke-width:1.03071;stroke-linejoin:round;stroke-dasharray:none;stroke-opacity:1"
           id="rect89"
           width="4.3313856"
           height="4.0770946"
           x="18.502789"
           y="71.194656"
           transform="matrix(0.94129103,-0.33759619,0,1,0,0)" />
        <rect
           style="fill:#ffffff;stroke-width:35.1644;stroke-linejoin:round"
           id="rect82"
           width="4.3313856"
           height="4.0770946"
           x="18.502789"
           y="71.194656"
           transform="matrix(0.94129103,-0.33759619,0,1,0,0)" />
      </g>
      <g
         id="g95"
         transform="matrix(19.250323,0,0,19.250323,-531.47885,-2341.6891)">
        <rect
           style="fill:#000000;stroke:none;stroke-width:1;stroke-linejoin:round;stroke-dasharray:none;stroke-opacity:1"
           id="rect91"
           width="0.86809367"
           height="11.95212"
           x="-30.130381"
           y="68.323685"
           transform="scale(-1,1)" />
        <rect
           style="fill:#000000;stroke:#000000;stroke-width:1.03071;stroke-linejoin:round;stroke-dasharray:none;stroke-opacity:1"
           id="rect92"
           width="4.3313856"
           height="4.0770946"
           x="-33.714207"
           y="54.477558"
           transform="matrix(-0.94129103,-0.33759619,0,1,0,0)" />
        <rect
           style="fill:#ffffff;stroke-width:35.1644;stroke-linejoin:round"
           id="rect93"
           width="4.3313856"
           height="4.0770946"
           x="-33.714207"
           y="54.477558"
           transform="matrix(-0.94129103,-0.33759619,0,1,0,0)" />
      </g>
      <g
         id="g96"
         transform="matrix(18.022564,0,0,18.022564,-508.15695,-2344.0126)">
        <rect
           style="fill:#000000;stroke:none;stroke-width:1;stroke-linejoin:round;stroke-dasharray:none;stroke-opacity:1"
           id="rect94"
           width="0.86809367"
           height="11.95212"
           x="-25.03145"
           y="68.021538"
           transform="scale(-1,1)" />
        <path
           style="color:#000000;fill:#ffffff;stroke:#000000;stroke-width:0.758442;stroke-linejoin:round;-inkscape-stroke:none"
           d="m 24.598144,61.117926 c -2.068224,0 -3.753697,1.685472 -3.753697,3.753696 0,2.068225 1.685473,3.752216 3.753697,3.752216 2.068224,0 3.752215,-1.683991 3.752215,-3.752216 0,-2.068224 -1.683991,-3.753696 -3.752215,-3.753696 z m 0,0.758442 c 1.658332,0 2.993773,1.336923 2.993773,2.995254 0,1.658333 -1.335441,2.993774 -2.993773,2.993774 -1.658332,0 -2.995255,-1.335441 -2.995255,-2.993774 0,-1.658331 1.336923,-2.995254 2.995255,-2.995254 z"
           id="path94" />
        <path
           style="color:#000000;fill:#ffffff;stroke-width:0.758442;stroke-linejoin:round;-inkscape-stroke:none"
           d="m 24.598144,61.117926 c -2.068224,0 -3.753697,1.685472 -3.753697,3.753696 0,2.068225 1.685473,3.752216 3.753697,3.752216 2.068224,0 3.752215,-1.683991 3.752215,-3.752216 0,-2.068224 -1.683991,-3.753696 -3.752215,-3.753696 z m 0,0.758442 c 1.658332,0 2.993773,1.336923 2.993773,2.995254 0,1.658333 -1.335441,2.993774 -2.993773,2.993774 -1.658332,0 -2.995255,-1.335441 -2.995255,-2.993774 0,-1.658331 1.336923,-2.995254 2.995255,-2.995254 z"
           id="path93" />
      </g>
      <g
         id="g3"
         transform="matrix(-35.240228,0,0,35.240228,607.48534,-2609.831)">
        <rect
           style="fill:#000000;stroke:none;stroke-width:1;stroke-linejoin:round;stroke-dasharray:none;stroke-opacity:1"
           id="rect1"
           width="0.86809367"
           height="11.95212"
           x="19.021009"
           y="67.412521" />
        <rect
           style="fill:#000000;stroke:#000000;stroke-width:1.03071;stroke-linejoin:round;stroke-dasharray:none;stroke-opacity:1"
           id="rect2"
           width="4.3313856"
           height="4.0770946"
           x="18.502789"
           y="71.194656"
           transform="matrix(0.94129103,-0.33759619,0,1,0,0)" />
        <rect
           style="fill:#ffffff;stroke-width:35.1644;stroke-linejoin:round"
           id="rect3"
           width="4.3313856"
           height="4.0770946"
           x="18.502789"
           y="71.194656"
           transform="matrix(0.94129103,-0.33759619,0,1,0,0)" />
      </g>
      <g
         id="g6"
         transform="matrix(19.250323,0,0,19.250323,-190.80572,-1232.9515)">
        <rect
           style="fill:#000000;stroke:none;stroke-width:1;stroke-linejoin:round;stroke-dasharray:none;stroke-opacity:1"
           id="rect4"
           width="0.86809367"
           height="11.95212"
           x="-30.130381"
           y="68.323685"
           transform="scale(-1,1)" />
        <rect
           style="fill:#000000;stroke:#000000;stroke-width:1.03071;stroke-linejoin:round;stroke-dasharray:none;stroke-opacity:1"
           id="rect5"
           width="4.3313856"
           height="4.0770946"
           x="-33.714207"
           y="54.477558"
           transform="matrix(-0.94129103,-0.33759619,0,1,0,0)" />
        <rect
           style="fill:#ffffff;stroke-width:35.1644;stroke-linejoin:round"
           id="rect6"
           width="4.3313856"
           height="4.0770946"
           x="-33.714207"
           y="54.477558"
           transform="matrix(-0.94129103,-0.33759619,0,1,0,0)" />
      </g>
      <g
         id="g8"
         transform="matrix(32.696152,0,0,32.696152,-891.98774,-1348.8223)">
        <rect
           style="fill:#000000;stroke:none;stroke-width:1;stroke-linejoin:round;stroke-dasharray:none;stroke-opacity:1"
           id="rect7"
           width="0.86809367"
           height="11.95212"
           x="-25.03145"
           y="68.021538"
           transform="scale(-1,1)" />
        <path
           style="color:#000000;fill:#ffffff;stroke:#000000;stroke-width:0.758442;stroke-linejoin:round;-inkscape-stroke:none"
           d="m 24.598144,61.117926 c -2.068224,0 -3.753697,1.685472 -3.753697,3.753696 0,2.068225 1.685473,3.752216 3.753697,3.752216 2.068224,0 3.752215,-1.683991 3.752215,-3.752216 0,-2.068224 -1.683991,-3.753696 -3.752215,-3.753696 z m 0,0.758442 c 1.658332,0 2.993773,1.336923 2.993773,2.995254 0,1.658333 -1.335441,2.993774 -2.993773,2.993774 -1.658332,0 -2.995255,-1.335441 -2.995255,-2.993774 0,-1.658331 1.336923,-2.995254 2.995255,-2.995254 z"
           id="path7" />
        <path
           style="color:#000000;fill:#ffffff;stroke-width:0.758442;stroke-linejoin:round;-inkscape-stroke:none"
           d="m 24.598144,61.117926 c -2.068224,0 -3.753697,1.685472 -3.753697,3.753696 0,2.068225 1.685473,3.752216 3.753697,3.752216 2.068224,0 3.752215,-1.683991 3.752215,-3.752216 0,-2.068224 -1.683991,-3.753696 -3.752215,-3.753696 z m 0,0.758442 c 1.658332,0 2.993773,1.336923 2.993773,2.995254 0,1.658333 -1.335441,2.993774 -2.993773,2.993774 -1.658332,0 -2.995255,-1.335441 -2.995255,-2.993774 0,-1.658331 1.336923,-2.995254 2.995255,-2.995254 z"
           id="path8" />
      </g>
    </g>
  </g>
</svg>
