<?xml version="1.0" encoding="UTF-8" standalone="no"?>
<svg
   xmlns:dc="http://purl.org/dc/elements/1.1/"
   xmlns:cc="http://creativecommons.org/ns#"
   xmlns:rdf="http://www.w3.org/1999/02/22-rdf-syntax-ns#"
   xmlns:svg="http://www.w3.org/2000/svg"
   xmlns="http://www.w3.org/2000/svg"
   xmlns:sodipodi="http://sodipodi.sourceforge.net/DTD/sodipodi-0.dtd"
   xmlns:inkscape="http://www.inkscape.org/namespaces/inkscape"
   width="256"
   height="256"
   viewBox="0 0 67.733332 67.733335"
   version="1.1"
   id="svg8"
   inkscape:version="0.92.5 (2060ec1f9f, 2020-04-08)"
   sodipodi:docname="Plastilla.svg"
   inkscape:export-filename="/home/chepecarlos/5.Programas/2.Heramientas/1.ElGatoALSW/Recursos/Notion/Notion.png"
   inkscape:export-xdpi="96.000008"
   inkscape:export-ydpi="96.000008">
  <defs
     id="defs2">
    <clipPath
       id="clipPath24"
       clipPathUnits="userSpaceOnUse">
      <path
         id="path22"
         d="m 2499.06,4090.98 c -793.93,0 -1437.55,-643.61 -1437.55,-1437.55 0,-793.94 643.62,-1437.54 1437.55,-1437.54 793.94,0 1437.55,643.6 1437.55,1437.54 0,793.94 -643.61,1437.55 -1437.55,1437.55 z m 0,-109.79 c 732.13,0 1327.76,-595.63 1327.76,-1327.76 0,-732.12 -595.63,-1327.76 -1327.76,-1327.76 -732.13,0 -1327.76,595.64 -1327.76,1327.76 0,732.13 595.63,1327.76 1327.76,1327.76" />
    </clipPath>
    <linearGradient
       id="linearGradient30"
       spreadMethod="pad"
       gradientTransform="matrix(2033,-2033,-2033,-2033,1482.56,3669.93)"
       gradientUnits="userSpaceOnUse"
       y2="0"
       x2="1"
       y1="0"
       x1="0">
      <stop
         id="stop26"
         offset="0"
         style="stop-opacity:1;stop-color:#922898" />
      <stop
         id="stop28"
         offset="1"
         style="stop-opacity:1;stop-color:#ee1f62" />
    </linearGradient>
    <clipPath
       id="clipPath42"
       clipPathUnits="userSpaceOnUse">
      <path
         id="path40"
         d="m 1872.43,942.289 c -48.43,0 -87.83,39.41 -87.83,87.841 v 543.06 c 0,48.43 39.4,87.84 87.83,87.84 h 1253.26 c 48.43,0 87.83,-39.41 87.83,-87.84 v -543.06 c 0,-48.431 -39.4,-87.841 -87.83,-87.841 z" />
    </clipPath>
    <linearGradient
       id="linearGradient48"
       spreadMethod="pad"
       gradientTransform="matrix(0,-718.73,-718.73,0,2499.06,1661.03)"
       gradientUnits="userSpaceOnUse"
       y2="0"
       x2="1"
       y1="0"
       x1="0">
      <stop
         id="stop44"
         offset="0"
         style="stop-opacity:1;stop-color:#922898" />
      <stop
         id="stop46"
         offset="1"
         style="stop-opacity:1;stop-color:#ee1f62" />
    </linearGradient>
    <clipPath
       id="clipPath24-3"
       clipPathUnits="userSpaceOnUse">
      <path
         id="path22-6"
         d="m 2499.06,4090.98 c -793.93,0 -1437.55,-643.61 -1437.55,-1437.55 0,-793.94 643.62,-1437.54 1437.55,-1437.54 793.94,0 1437.55,643.6 1437.55,1437.54 0,793.94 -643.61,1437.55 -1437.55,1437.55 z m 0,-109.79 c 732.13,0 1327.76,-595.63 1327.76,-1327.76 0,-732.12 -595.63,-1327.76 -1327.76,-1327.76 -732.13,0 -1327.76,595.64 -1327.76,1327.76 0,732.13 595.63,1327.76 1327.76,1327.76" />
    </clipPath>
    <linearGradient
       id="linearGradient30-7"
       spreadMethod="pad"
       gradientTransform="matrix(2033,-2033,-2033,-2033,1482.56,3669.93)"
       gradientUnits="userSpaceOnUse"
       y2="0"
       x2="1"
       y1="0"
       x1="0">
      <stop
         id="stop26-5"
         offset="0"
         style="stop-opacity:1;stop-color:#922898" />
      <stop
         id="stop28-3"
         offset="1"
         style="stop-opacity:1;stop-color:#ee1f62" />
    </linearGradient>
    <clipPath
       id="clipPath42-5"
       clipPathUnits="userSpaceOnUse">
      <path
         id="path40-6"
         d="m 2042.92,942.289 c -48.43,0 -87.83,39.41 -87.83,87.841 v 543.06 c 0,48.43 39.4,87.84 87.83,87.84 h 912.28 c 48.43,0 87.84,-39.41 87.84,-87.84 v -543.06 c 0,-48.431 -39.41,-87.841 -87.84,-87.841 z" />
    </clipPath>
    <linearGradient
       id="linearGradient48-2"
       spreadMethod="pad"
       gradientTransform="matrix(0,-718.73,-718.73,0,2499.06,1661.03)"
       gradientUnits="userSpaceOnUse"
       y2="0"
       x2="1"
       y1="0"
       x1="0">
      <stop
         id="stop44-9"
         offset="0"
         style="stop-opacity:1;stop-color:#922898" />
      <stop
         id="stop46-1"
         offset="1"
         style="stop-opacity:1;stop-color:#ee1f62" />
    </linearGradient>
  </defs>
  <sodipodi:namedview
     id="base"
     pagecolor="#ffffff"
     bordercolor="#666666"
     borderopacity="1.0"
     inkscape:pageopacity="0.0"
     inkscape:pageshadow="2"
     inkscape:zoom="1.397117"
     inkscape:cx="61.31694"
     inkscape:cy="144.08498"
     inkscape:document-units="mm"
     inkscape:current-layer="g3742"
     showgrid="false"
     units="px"
     inkscape:snap-global="false"
     inkscape:window-width="1920"
     inkscape:window-height="1125"
     inkscape:window-x="0"
     inkscape:window-y="0"
     inkscape:window-maximized="1"
     inkscape:pagecheckerboard="true"
     borderlayer="true"
     inkscape:document-rotation="0" />
  <metadata
     id="metadata5">
    <rdf:RDF>
      <cc:Work
         rdf:about="">
        <dc:format>image/svg+xml</dc:format>
        <dc:type
           rdf:resource="http://purl.org/dc/dcmitype/StillImage" />
        <dc:title />
      </cc:Work>
    </rdf:RDF>
  </metadata>
  <g
     inkscape:label="Capa 1"
     inkscape:groupmode="layer"
     id="layer1"
     transform="translate(0,-229.26665)">
    <g
       id="g3742"
       transform="translate(54.617561,15.308035)">
      <rect
         style="fill:#000000;fill-opacity:0.995596;stroke-width:11.3616;stroke-linejoin:round"
         id="rect1368"
         width="1298.9644"
         height="99.981232"
         x="-854.34058"
         y="100.51558" />
      <g
         id="g4719"
         style="fill:#008080;stroke:#ffffff;stroke-width:20.20339966;stroke-linejoin:round;stroke-miterlimit:4;stroke-dasharray:none;stroke-opacity:1"
         transform="matrix(0.14848986,0,0,0.14848986,-607.2051,94.153617)" />
      <g
         id="g4721"
         style="fill:#008080;stroke:#ffffff;stroke-width:20.20339966;stroke-linejoin:round;stroke-miterlimit:4;stroke-dasharray:none;stroke-opacity:1"
         transform="matrix(0.14848986,0,0,0.14848986,-607.2051,94.153617)" />
      <g
         id="g4723"
         style="fill:#008080;stroke:#ffffff;stroke-width:20.20339966;stroke-linejoin:round;stroke-miterlimit:4;stroke-dasharray:none;stroke-opacity:1"
         transform="matrix(0.14848986,0,0,0.14848986,-607.2051,94.153617)" />
      <g
         id="g4725"
         style="fill:#008080;stroke:#ffffff;stroke-width:20.20339966;stroke-linejoin:round;stroke-miterlimit:4;stroke-dasharray:none;stroke-opacity:1"
         transform="matrix(0.14848986,0,0,0.14848986,-607.2051,94.153617)" />
      <g
         id="g4727"
         style="fill:#008080;stroke:#ffffff;stroke-width:20.20339966;stroke-linejoin:round;stroke-miterlimit:4;stroke-dasharray:none;stroke-opacity:1"
         transform="matrix(0.14848986,0,0,0.14848986,-607.2051,94.153617)" />
      <g
         id="g4729"
         style="fill:#008080;stroke:#ffffff;stroke-width:20.20339966;stroke-linejoin:round;stroke-miterlimit:4;stroke-dasharray:none;stroke-opacity:1"
         transform="matrix(0.14848986,0,0,0.14848986,-607.2051,94.153617)" />
      <g
         id="g4731"
         style="fill:#008080;stroke:#ffffff;stroke-width:20.20339966;stroke-linejoin:round;stroke-miterlimit:4;stroke-dasharray:none;stroke-opacity:1"
         transform="matrix(0.14848986,0,0,0.14848986,-607.2051,94.153617)" />
      <g
         id="g4733"
         style="fill:#008080;stroke:#ffffff;stroke-width:20.20339966;stroke-linejoin:round;stroke-miterlimit:4;stroke-dasharray:none;stroke-opacity:1"
         transform="matrix(0.14848986,0,0,0.14848986,-607.2051,94.153617)" />
      <g
         id="g4735"
         style="fill:#008080;stroke:#ffffff;stroke-width:20.20339966;stroke-linejoin:round;stroke-miterlimit:4;stroke-dasharray:none;stroke-opacity:1"
         transform="matrix(0.14848986,0,0,0.14848986,-607.2051,94.153617)" />
      <g
         id="g4737"
         style="fill:#008080;stroke:#ffffff;stroke-width:20.20339966;stroke-linejoin:round;stroke-miterlimit:4;stroke-dasharray:none;stroke-opacity:1"
         transform="matrix(0.14848986,0,0,0.14848986,-607.2051,94.153617)" />
      <g
         id="g4739"
         style="fill:#008080;stroke:#ffffff;stroke-width:20.20339966;stroke-linejoin:round;stroke-miterlimit:4;stroke-dasharray:none;stroke-opacity:1"
         transform="matrix(0.14848986,0,0,0.14848986,-607.2051,94.153617)" />
      <g
         id="g4741"
         style="fill:#008080;stroke:#ffffff;stroke-width:20.20339966;stroke-linejoin:round;stroke-miterlimit:4;stroke-dasharray:none;stroke-opacity:1"
         transform="matrix(0.14848986,0,0,0.14848986,-607.2051,94.153617)" />
      <g
         id="g4743"
         style="fill:#008080;stroke:#ffffff;stroke-width:20.20339966;stroke-linejoin:round;stroke-miterlimit:4;stroke-dasharray:none;stroke-opacity:1"
         transform="matrix(0.14848986,0,0,0.14848986,-607.2051,94.153617)" />
      <g
         id="g4745"
         style="fill:#008080;stroke:#ffffff;stroke-width:20.20339966;stroke-linejoin:round;stroke-miterlimit:4;stroke-dasharray:none;stroke-opacity:1"
         transform="matrix(0.14848986,0,0,0.14848986,-607.2051,94.153617)" />
      <g
         id="g4747"
         style="fill:#008080;stroke:#ffffff;stroke-width:20.20339966;stroke-linejoin:round;stroke-miterlimit:4;stroke-dasharray:none;stroke-opacity:1"
         transform="matrix(0.14848986,0,0,0.14848986,-607.2051,94.153617)" />
      <g
         style="fill:#2a3d4f"
         id="g1328"
         transform="matrix(0.26458334,0,0,0.26458334,-241.14719,455.04135)" />
      <g
         style="fill:#2a3d4f"
         id="g1330"
         transform="matrix(0.26458334,0,0,0.26458334,-241.14719,455.04135)" />
      <g
         style="fill:#2a3d4f"
         id="g1332"
         transform="matrix(0.26458334,0,0,0.26458334,-241.14719,455.04135)" />
      <g
         style="fill:#2a3d4f"
         id="g1334"
         transform="matrix(0.26458334,0,0,0.26458334,-241.14719,455.04135)" />
      <g
         style="fill:#2a3d4f"
         id="g1336"
         transform="matrix(0.26458334,0,0,0.26458334,-241.14719,455.04135)" />
      <g
         style="fill:#2a3d4f"
         id="g1338"
         transform="matrix(0.26458334,0,0,0.26458334,-241.14719,455.04135)" />
      <g
         style="fill:#2a3d4f"
         id="g1340"
         transform="matrix(0.26458334,0,0,0.26458334,-241.14719,455.04135)" />
      <g
         style="fill:#2a3d4f"
         id="g1342"
         transform="matrix(0.26458334,0,0,0.26458334,-241.14719,455.04135)" />
      <g
         style="fill:#2a3d4f"
         id="g1344"
         transform="matrix(0.26458334,0,0,0.26458334,-241.14719,455.04135)" />
      <g
         style="fill:#2a3d4f"
         id="g1346"
         transform="matrix(0.26458334,0,0,0.26458334,-241.14719,455.04135)" />
      <g
         style="fill:#2a3d4f"
         id="g1348"
         transform="matrix(0.26458334,0,0,0.26458334,-241.14719,455.04135)" />
      <g
         style="fill:#2a3d4f"
         id="g1350"
         transform="matrix(0.26458334,0,0,0.26458334,-241.14719,455.04135)" />
      <g
         style="fill:#2a3d4f"
         id="g1352"
         transform="matrix(0.26458334,0,0,0.26458334,-241.14719,455.04135)" />
      <g
         style="fill:#2a3d4f"
         id="g1354"
         transform="matrix(0.26458334,0,0,0.26458334,-241.14719,455.04135)" />
      <g
         style="fill:#2a3d4f"
         id="g1356"
         transform="matrix(0.26458334,0,0,0.26458334,-241.14719,455.04135)" />
      <g
         style="fill:#2a3d4f"
         id="g1759"
         transform="matrix(0.26458334,0,0,0.26458334,-139.91626,118.96834)" />
      <g
         style="fill:#2a3d4f"
         id="g1761"
         transform="matrix(0.26458334,0,0,0.26458334,-139.91626,118.96834)" />
      <g
         style="fill:#2a3d4f"
         id="g1763"
         transform="matrix(0.26458334,0,0,0.26458334,-139.91626,118.96834)" />
      <g
         style="fill:#2a3d4f"
         id="g1765"
         transform="matrix(0.26458334,0,0,0.26458334,-139.91626,118.96834)" />
      <g
         style="fill:#2a3d4f"
         id="g1767"
         transform="matrix(0.26458334,0,0,0.26458334,-139.91626,118.96834)" />
      <g
         style="fill:#2a3d4f"
         id="g1769"
         transform="matrix(0.26458334,0,0,0.26458334,-139.91626,118.96834)" />
      <g
         style="fill:#2a3d4f"
         id="g1771"
         transform="matrix(0.26458334,0,0,0.26458334,-139.91626,118.96834)" />
      <g
         style="fill:#2a3d4f"
         id="g1773"
         transform="matrix(0.26458334,0,0,0.26458334,-139.91626,118.96834)" />
      <g
         style="fill:#2a3d4f"
         id="g1775"
         transform="matrix(0.26458334,0,0,0.26458334,-139.91626,118.96834)" />
      <g
         style="fill:#2a3d4f"
         id="g1777"
         transform="matrix(0.26458334,0,0,0.26458334,-139.91626,118.96834)" />
      <g
         style="fill:#2a3d4f"
         id="g1779"
         transform="matrix(0.26458334,0,0,0.26458334,-139.91626,118.96834)" />
      <g
         style="fill:#2a3d4f"
         id="g1781"
         transform="matrix(0.26458334,0,0,0.26458334,-139.91626,118.96834)" />
      <g
         style="fill:#2a3d4f"
         id="g1783"
         transform="matrix(0.26458334,0,0,0.26458334,-139.91626,118.96834)" />
      <g
         style="fill:#2a3d4f"
         id="g1785"
         transform="matrix(0.26458334,0,0,0.26458334,-139.91626,118.96834)" />
      <g
         style="fill:#2a3d4f"
         id="g1787"
         transform="matrix(0.26458334,0,0,0.26458334,-139.91626,118.96834)" />
      <rect
         y="207.60585"
         x="-65.431648"
         height="80.438858"
         width="89.361511"
         id="rect1156"
         style="fill:#000000;fill-opacity:0.995596;stroke-width:2.67295;stroke-linejoin:round" />
      <g
         id="g925"
         transform="matrix(0.12156594,0,0,0.12156594,-51.871872,216.70387)"
         style="fill:#ffffff">
        <path
           id="path911"
           d="M 186.84,13.95 C 107.78,19.8 40.57,25.18 37.41,25.81 28.55,27.39 20.49,33.4 16.7,41.31 l -3.32,6.96 0.32,165.88 0.47,165.88 5.06,10.28 c 2.85,5.69 22.14,32.26 43.17,59.61 41.59,53.92 44.59,56.93 60.4,58.51 4.59,0.47 39.06,-1.11 76.38,-3.32 37.48,-2.37 97.56,-6.01 133.62,-8.06 154.01,-9.35 146.1,-8.56 154.95,-16.15 11.07,-9.17 10.28,5.85 10.75,-195.76 0.32,-170.94 0.16,-182.16 -2.37,-187.38 -3,-5.85 -8.38,-9.96 -78.59,-59.3 C 370.58,5.57 367.26,3.83 346.22,3.51 337.53,3.2 265.74,7.94 186.84,13.95 Z m 177.73,21.66 c 6.64,3 55.19,36.84 62.3,43.33 1.9,1.9 2.53,3.48 1.58,4.43 -2.21,1.9 -302.66,19.77 -311.35,18.5 -3.95,-0.63 -9.8,-3 -13.12,-5.22 C 90.22,87.32 56.07,59.33 56.07,57.28 c 0,-5.38 -1.11,-5.38 132.83,-15.02 25.62,-1.74 67.68,-4.9 93.3,-6.96 55.49,-4.43 72.1,-4.27 82.37,0.31 z m 95.51,86.5 c 2.21,2.21 4.11,6.48 4.74,10.59 0.47,3.8 0.79,74.64 0.47,157.18 -0.47,141.68 -0.63,150.54 -3.32,154.65 -1.58,2.53 -4.74,5.22 -7.12,6.01 -6.63,2.69 -321.46,20.56 -327.94,18.66 -3,-0.79 -7.12,-3.32 -9.33,-5.53 l -3.8,-4.11 -0.47,-152.75 c -0.32,-107.21 0,-154.65 1.27,-158.92 0.95,-3.16 3.32,-6.96 5.38,-8.22 2.85,-1.9 21.51,-3.48 85.71,-7.27 45.07,-2.53 114.8,-6.8 154.81,-9.17 95.17,-5.86 94.86,-5.86 99.6,-1.12 z"
           inkscape:connector-curvature="0"
           style="fill:#ffffff" />
        <path
           id="path913"
           d="m 375.48,174.45 c -17.08,1.11 -32.26,2.69 -34,3.64 -5.22,2.69 -8.38,7.12 -9.01,12.18 -0.47,5.22 1.11,5.85 18.18,7.91 l 7.43,0.95 v 67.52 c 0,40.16 -0.63,66.73 -1.42,65.94 -0.79,-0.95 -23.24,-35.1 -49.97,-75.9 -26.72,-40.95 -48.86,-74.64 -49.18,-74.95 -0.32,-0.32 -17.71,0.63 -38.58,2.06 -25.62,1.74 -39.69,3.32 -42.54,4.9 -4.59,2.37 -9.65,10.75 -9.65,16.29 0,3.32 6.01,5.06 18.66,5.06 h 6.64 v 194.18 l -10.75,3.32 c -8.38,2.53 -11.23,4.11 -12.65,7.27 -2.53,5.38 -2.37,10.28 0.16,10.28 0.95,0 18.82,-1.11 39.37,-2.37 40.64,-2.37 45.22,-3.48 49.49,-11.86 1.27,-2.53 2.37,-5.22 2.37,-6.01 0,-0.63 -5.53,-2.53 -12.18,-4.11 -6.8,-1.58 -13.6,-3.16 -15.02,-3.48 -2.69,-0.79 -2.85,-5.69 -2.85,-73.69 v -72.9 l 48.07,75.43 c 50.44,79.06 56.77,88.08 64.52,92.03 9.65,5.06 34.16,1.58 46.49,-6.48 l 3.8,-2.37 0.32,-107.84 0.47,-108 8.38,-1.58 c 9.96,-1.9 14.55,-6.48 14.55,-14.39 0,-5.06 -0.32,-5.38 -5.06,-5.22 -2.83,0.13 -19.12,1.08 -36.04,2.19 z"
           inkscape:connector-curvature="0"
           style="fill:#ffffff" />
      </g>
    </g>
  </g>
</svg>
