<?xml version="1.0" encoding="UTF-8" standalone="no"?>
<svg
   xmlns:dc="http://purl.org/dc/elements/1.1/"
   xmlns:cc="http://creativecommons.org/ns#"
   xmlns:rdf="http://www.w3.org/1999/02/22-rdf-syntax-ns#"
   xmlns:svg="http://www.w3.org/2000/svg"
   xmlns="http://www.w3.org/2000/svg"
   xmlns:sodipodi="http://sodipodi.sourceforge.net/DTD/sodipodi-0.dtd"
   xmlns:inkscape="http://www.inkscape.org/namespaces/inkscape"
   width="256"
   height="256"
   viewBox="0 0 67.733332 67.733335"
   version="1.1"
   id="svg8"
   inkscape:version="0.92.5 (2060ec1f9f, 2020-04-08)"
   sodipodi:docname="Plastilla.svg"
   inkscape:export-filename="/home/chepecarlos/.config/elgatoalsw/defaul/link/series.png"
   inkscape:export-xdpi="96.000008"
   inkscape:export-ydpi="96.000008">
  <defs
     id="defs2">
    <clipPath
       id="clipPath24"
       clipPathUnits="userSpaceOnUse">
      <path
         id="path22"
         d="m 2499.06,4090.98 c -793.93,0 -1437.55,-643.61 -1437.55,-1437.55 0,-793.94 643.62,-1437.54 1437.55,-1437.54 793.94,0 1437.55,643.6 1437.55,1437.54 0,793.94 -643.61,1437.55 -1437.55,1437.55 z m 0,-109.79 c 732.13,0 1327.76,-595.63 1327.76,-1327.76 0,-732.12 -595.63,-1327.76 -1327.76,-1327.76 -732.13,0 -1327.76,595.64 -1327.76,1327.76 0,732.13 595.63,1327.76 1327.76,1327.76" />
    </clipPath>
    <linearGradient
       id="linearGradient30"
       spreadMethod="pad"
       gradientTransform="matrix(2033,-2033,-2033,-2033,1482.56,3669.93)"
       gradientUnits="userSpaceOnUse"
       y2="0"
       x2="1"
       y1="0"
       x1="0">
      <stop
         id="stop26"
         offset="0"
         style="stop-opacity:1;stop-color:#922898" />
      <stop
         id="stop28"
         offset="1"
         style="stop-opacity:1;stop-color:#ee1f62" />
    </linearGradient>
    <clipPath
       id="clipPath42"
       clipPathUnits="userSpaceOnUse">
      <path
         id="path40"
         d="m 1872.43,942.289 c -48.43,0 -87.83,39.41 -87.83,87.841 v 543.06 c 0,48.43 39.4,87.84 87.83,87.84 h 1253.26 c 48.43,0 87.83,-39.41 87.83,-87.84 v -543.06 c 0,-48.431 -39.4,-87.841 -87.83,-87.841 z" />
    </clipPath>
    <linearGradient
       id="linearGradient48"
       spreadMethod="pad"
       gradientTransform="matrix(0,-718.73,-718.73,0,2499.06,1661.03)"
       gradientUnits="userSpaceOnUse"
       y2="0"
       x2="1"
       y1="0"
       x1="0">
      <stop
         id="stop44"
         offset="0"
         style="stop-opacity:1;stop-color:#922898" />
      <stop
         id="stop46"
         offset="1"
         style="stop-opacity:1;stop-color:#ee1f62" />
    </linearGradient>
    <clipPath
       id="clipPath24-3"
       clipPathUnits="userSpaceOnUse">
      <path
         id="path22-6"
         d="m 2499.06,4090.98 c -793.93,0 -1437.55,-643.61 -1437.55,-1437.55 0,-793.94 643.62,-1437.54 1437.55,-1437.54 793.94,0 1437.55,643.6 1437.55,1437.54 0,793.94 -643.61,1437.55 -1437.55,1437.55 z m 0,-109.79 c 732.13,0 1327.76,-595.63 1327.76,-1327.76 0,-732.12 -595.63,-1327.76 -1327.76,-1327.76 -732.13,0 -1327.76,595.64 -1327.76,1327.76 0,732.13 595.63,1327.76 1327.76,1327.76" />
    </clipPath>
    <linearGradient
       id="linearGradient30-7"
       spreadMethod="pad"
       gradientTransform="matrix(2033,-2033,-2033,-2033,1482.56,3669.93)"
       gradientUnits="userSpaceOnUse"
       y2="0"
       x2="1"
       y1="0"
       x1="0">
      <stop
         id="stop26-5"
         offset="0"
         style="stop-opacity:1;stop-color:#922898" />
      <stop
         id="stop28-3"
         offset="1"
         style="stop-opacity:1;stop-color:#ee1f62" />
    </linearGradient>
    <clipPath
       id="clipPath42-5"
       clipPathUnits="userSpaceOnUse">
      <path
         id="path40-6"
         d="m 2042.92,942.289 c -48.43,0 -87.83,39.41 -87.83,87.841 v 543.06 c 0,48.43 39.4,87.84 87.83,87.84 h 912.28 c 48.43,0 87.84,-39.41 87.84,-87.84 v -543.06 c 0,-48.431 -39.41,-87.841 -87.84,-87.841 z" />
    </clipPath>
    <linearGradient
       id="linearGradient48-2"
       spreadMethod="pad"
       gradientTransform="matrix(0,-718.73,-718.73,0,2499.06,1661.03)"
       gradientUnits="userSpaceOnUse"
       y2="0"
       x2="1"
       y1="0"
       x1="0">
      <stop
         id="stop44-9"
         offset="0"
         style="stop-opacity:1;stop-color:#922898" />
      <stop
         id="stop46-1"
         offset="1"
         style="stop-opacity:1;stop-color:#ee1f62" />
    </linearGradient>
  </defs>
  <sodipodi:namedview
     id="base"
     pagecolor="#ffffff"
     bordercolor="#666666"
     borderopacity="1.0"
     inkscape:pageopacity="0.0"
     inkscape:pageshadow="2"
     inkscape:zoom="0.6985585"
     inkscape:cx="123.13558"
     inkscape:cy="251.49017"
     inkscape:document-units="mm"
     inkscape:current-layer="g122"
     showgrid="false"
     units="px"
     inkscape:snap-global="false"
     inkscape:window-width="1920"
     inkscape:window-height="1005"
     inkscape:window-x="0"
     inkscape:window-y="0"
     inkscape:window-maximized="1"
     inkscape:pagecheckerboard="true"
     borderlayer="true"
     inkscape:document-rotation="0" />
  <metadata
     id="metadata5">
    <rdf:RDF>
      <cc:Work
         rdf:about="">
        <dc:format>image/svg+xml</dc:format>
        <dc:type
           rdf:resource="http://purl.org/dc/dcmitype/StillImage" />
        <dc:title />
      </cc:Work>
    </rdf:RDF>
  </metadata>
  <g
     inkscape:label="Capa 1"
     inkscape:groupmode="layer"
     id="layer1"
     transform="translate(0,-229.26665)">
    <g
       id="g3742"
       transform="translate(54.617561,15.308035)">
      <rect
         style="fill:#000000;fill-opacity:0.995596;stroke-width:10.0789;stroke-linejoin:round"
         id="rect1368"
         width="1022.2241"
         height="99.981232"
         x="-577.60028"
         y="100.51558" />
      <g
         id="g4719"
         style="fill:#008080;stroke:#ffffff;stroke-width:20.20339966;stroke-linejoin:round;stroke-miterlimit:4;stroke-dasharray:none;stroke-opacity:1"
         transform="matrix(0.14848986,0,0,0.14848986,-607.2051,94.153617)" />
      <g
         id="g4721"
         style="fill:#008080;stroke:#ffffff;stroke-width:20.20339966;stroke-linejoin:round;stroke-miterlimit:4;stroke-dasharray:none;stroke-opacity:1"
         transform="matrix(0.14848986,0,0,0.14848986,-607.2051,94.153617)" />
      <g
         id="g4723"
         style="fill:#008080;stroke:#ffffff;stroke-width:20.20339966;stroke-linejoin:round;stroke-miterlimit:4;stroke-dasharray:none;stroke-opacity:1"
         transform="matrix(0.14848986,0,0,0.14848986,-607.2051,94.153617)" />
      <g
         id="g4725"
         style="fill:#008080;stroke:#ffffff;stroke-width:20.20339966;stroke-linejoin:round;stroke-miterlimit:4;stroke-dasharray:none;stroke-opacity:1"
         transform="matrix(0.14848986,0,0,0.14848986,-607.2051,94.153617)" />
      <g
         id="g4727"
         style="fill:#008080;stroke:#ffffff;stroke-width:20.20339966;stroke-linejoin:round;stroke-miterlimit:4;stroke-dasharray:none;stroke-opacity:1"
         transform="matrix(0.14848986,0,0,0.14848986,-607.2051,94.153617)" />
      <g
         id="g4729"
         style="fill:#008080;stroke:#ffffff;stroke-width:20.20339966;stroke-linejoin:round;stroke-miterlimit:4;stroke-dasharray:none;stroke-opacity:1"
         transform="matrix(0.14848986,0,0,0.14848986,-607.2051,94.153617)" />
      <g
         id="g4731"
         style="fill:#008080;stroke:#ffffff;stroke-width:20.20339966;stroke-linejoin:round;stroke-miterlimit:4;stroke-dasharray:none;stroke-opacity:1"
         transform="matrix(0.14848986,0,0,0.14848986,-607.2051,94.153617)" />
      <g
         id="g4733"
         style="fill:#008080;stroke:#ffffff;stroke-width:20.20339966;stroke-linejoin:round;stroke-miterlimit:4;stroke-dasharray:none;stroke-opacity:1"
         transform="matrix(0.14848986,0,0,0.14848986,-607.2051,94.153617)" />
      <g
         id="g4735"
         style="fill:#008080;stroke:#ffffff;stroke-width:20.20339966;stroke-linejoin:round;stroke-miterlimit:4;stroke-dasharray:none;stroke-opacity:1"
         transform="matrix(0.14848986,0,0,0.14848986,-607.2051,94.153617)" />
      <g
         id="g4737"
         style="fill:#008080;stroke:#ffffff;stroke-width:20.20339966;stroke-linejoin:round;stroke-miterlimit:4;stroke-dasharray:none;stroke-opacity:1"
         transform="matrix(0.14848986,0,0,0.14848986,-607.2051,94.153617)" />
      <g
         id="g4739"
         style="fill:#008080;stroke:#ffffff;stroke-width:20.20339966;stroke-linejoin:round;stroke-miterlimit:4;stroke-dasharray:none;stroke-opacity:1"
         transform="matrix(0.14848986,0,0,0.14848986,-607.2051,94.153617)" />
      <g
         id="g4741"
         style="fill:#008080;stroke:#ffffff;stroke-width:20.20339966;stroke-linejoin:round;stroke-miterlimit:4;stroke-dasharray:none;stroke-opacity:1"
         transform="matrix(0.14848986,0,0,0.14848986,-607.2051,94.153617)" />
      <g
         id="g4743"
         style="fill:#008080;stroke:#ffffff;stroke-width:20.20339966;stroke-linejoin:round;stroke-miterlimit:4;stroke-dasharray:none;stroke-opacity:1"
         transform="matrix(0.14848986,0,0,0.14848986,-607.2051,94.153617)" />
      <g
         id="g4745"
         style="fill:#008080;stroke:#ffffff;stroke-width:20.20339966;stroke-linejoin:round;stroke-miterlimit:4;stroke-dasharray:none;stroke-opacity:1"
         transform="matrix(0.14848986,0,0,0.14848986,-607.2051,94.153617)" />
      <g
         id="g4747"
         style="fill:#008080;stroke:#ffffff;stroke-width:20.20339966;stroke-linejoin:round;stroke-miterlimit:4;stroke-dasharray:none;stroke-opacity:1"
         transform="matrix(0.14848986,0,0,0.14848986,-607.2051,94.153617)" />
      <g
         style="fill:#2a3d4f"
         id="g1328"
         transform="matrix(0.26458334,0,0,0.26458334,-241.14719,455.04135)" />
      <g
         style="fill:#2a3d4f"
         id="g1330"
         transform="matrix(0.26458334,0,0,0.26458334,-241.14719,455.04135)" />
      <g
         style="fill:#2a3d4f"
         id="g1332"
         transform="matrix(0.26458334,0,0,0.26458334,-241.14719,455.04135)" />
      <g
         style="fill:#2a3d4f"
         id="g1334"
         transform="matrix(0.26458334,0,0,0.26458334,-241.14719,455.04135)" />
      <g
         style="fill:#2a3d4f"
         id="g1336"
         transform="matrix(0.26458334,0,0,0.26458334,-241.14719,455.04135)" />
      <g
         style="fill:#2a3d4f"
         id="g1338"
         transform="matrix(0.26458334,0,0,0.26458334,-241.14719,455.04135)" />
      <g
         style="fill:#2a3d4f"
         id="g1340"
         transform="matrix(0.26458334,0,0,0.26458334,-241.14719,455.04135)" />
      <g
         style="fill:#2a3d4f"
         id="g1342"
         transform="matrix(0.26458334,0,0,0.26458334,-241.14719,455.04135)" />
      <g
         style="fill:#2a3d4f"
         id="g1344"
         transform="matrix(0.26458334,0,0,0.26458334,-241.14719,455.04135)" />
      <g
         style="fill:#2a3d4f"
         id="g1346"
         transform="matrix(0.26458334,0,0,0.26458334,-241.14719,455.04135)" />
      <g
         style="fill:#2a3d4f"
         id="g1348"
         transform="matrix(0.26458334,0,0,0.26458334,-241.14719,455.04135)" />
      <g
         style="fill:#2a3d4f"
         id="g1350"
         transform="matrix(0.26458334,0,0,0.26458334,-241.14719,455.04135)" />
      <g
         style="fill:#2a3d4f"
         id="g1352"
         transform="matrix(0.26458334,0,0,0.26458334,-241.14719,455.04135)" />
      <g
         style="fill:#2a3d4f"
         id="g1354"
         transform="matrix(0.26458334,0,0,0.26458334,-241.14719,455.04135)" />
      <g
         style="fill:#2a3d4f"
         id="g1356"
         transform="matrix(0.26458334,0,0,0.26458334,-241.14719,455.04135)" />
      <g
         style="fill:#2a3d4f"
         id="g1759"
         transform="matrix(0.26458334,0,0,0.26458334,-139.91626,118.96834)" />
      <g
         style="fill:#2a3d4f"
         id="g1761"
         transform="matrix(0.26458334,0,0,0.26458334,-139.91626,118.96834)" />
      <g
         style="fill:#2a3d4f"
         id="g1763"
         transform="matrix(0.26458334,0,0,0.26458334,-139.91626,118.96834)" />
      <g
         style="fill:#2a3d4f"
         id="g1765"
         transform="matrix(0.26458334,0,0,0.26458334,-139.91626,118.96834)" />
      <g
         style="fill:#2a3d4f"
         id="g1767"
         transform="matrix(0.26458334,0,0,0.26458334,-139.91626,118.96834)" />
      <g
         style="fill:#2a3d4f"
         id="g1769"
         transform="matrix(0.26458334,0,0,0.26458334,-139.91626,118.96834)" />
      <g
         style="fill:#2a3d4f"
         id="g1771"
         transform="matrix(0.26458334,0,0,0.26458334,-139.91626,118.96834)" />
      <g
         style="fill:#2a3d4f"
         id="g1773"
         transform="matrix(0.26458334,0,0,0.26458334,-139.91626,118.96834)" />
      <g
         style="fill:#2a3d4f"
         id="g1775"
         transform="matrix(0.26458334,0,0,0.26458334,-139.91626,118.96834)" />
      <g
         style="fill:#2a3d4f"
         id="g1777"
         transform="matrix(0.26458334,0,0,0.26458334,-139.91626,118.96834)" />
      <g
         style="fill:#2a3d4f"
         id="g1779"
         transform="matrix(0.26458334,0,0,0.26458334,-139.91626,118.96834)" />
      <g
         style="fill:#2a3d4f"
         id="g1781"
         transform="matrix(0.26458334,0,0,0.26458334,-139.91626,118.96834)" />
      <g
         style="fill:#2a3d4f"
         id="g1783"
         transform="matrix(0.26458334,0,0,0.26458334,-139.91626,118.96834)" />
      <g
         style="fill:#2a3d4f"
         id="g1785"
         transform="matrix(0.26458334,0,0,0.26458334,-139.91626,118.96834)" />
      <g
         style="fill:#2a3d4f"
         id="g1787"
         transform="matrix(0.26458334,0,0,0.26458334,-139.91626,118.96834)" />
      <rect
         y="207.60585"
         x="-65.431648"
         height="80.438858"
         width="89.361511"
         id="rect1156"
         style="fill:#000000;fill-opacity:0.995596;stroke-width:2.67295;stroke-linejoin:round" />
      <g
         id="g122"
         transform="matrix(0.26458333,0,0,0.26458333,-187.12366,35.341091)">
        <g
           id="g102"
           transform="matrix(1.4777857,0,0,1.4777857,-1003.4235,385.74895)">
          <path
             id="path98"
             d="M 154.3,17.5 C 152.5,10.8 147.2,5.5 140.5,3.7 128.4,0.4 79.7,0.4 79.7,0.4 79.7,0.4 31,0.5 18.9,3.8 12.2,5.6 6.9,10.9 5.1,17.6 1.9,29.7 1.9,55 1.9,55 c 0,0 0,25.3 3.3,37.5 1.8,6.7 7.1,12 13.8,13.8 12.1,3.3 60.8,3.3 60.8,3.3 0,0 48.7,0 60.8,-3.3 6.7,-1.8 12,-7.1 13.8,-13.8 3.3,-12.1 3.3,-37.5 3.3,-37.5 0,0 -0.1,-25.3 -3.4,-37.5 z"
             inkscape:connector-curvature="0"
             style="fill:#ff0000" />
          <polygon
             id="polygon100"
             points="104.6,55 64.2,31.6 64.2,78.4 "
             style="fill:#ffffff" />
        </g>
        <g
           id="g906"
           transform="matrix(0.47664884,0,0,0.47664884,506.78836,681.06776)">
          <path
             id="path884"
             d="m 419.17,410.104 v 62.4 H 131 c -11.87,0 -21.5,-9.63 -21.5,-21.5 v -19.4 c 0,-11.87 9.63,-21.5 21.5,-21.5 z"
             inkscape:connector-curvature="0"
             style="fill:#d9ecfd" />
          <path
             id="path886"
             d="m 419.17,441.304 v 31.2 H 131 c -11.87,0 -21.5,-9.63 -21.5,-21.5 v -9.7 z"
             inkscape:connector-curvature="0"
             style="fill:#c5e2ff" />
          <path
             id="path888"
             d="M 132.68,378.104 V 7.5 H 112.5 c -19.33,0 -35,15.67 -35,35 v 389.104 c 0,-29.645 24.103,-53.64 53.748,-53.506 z"
             inkscape:connector-curvature="0"
             style="fill:#db3915" />
          <path
             id="path890"
             d="M 132.68,7.5 H 434.5 V 378.104 H 132.68 Z"
             inkscape:connector-curvature="0"
             style="fill:#fc5a36" />
          <path
             id="path892"
             d="m 131,378.104 c -29.547,0 -53.5,23.953 -53.5,53.5 V 451 c 0,29.547 23.953,53.5 53.5,53.5 h 303.5 v -32 H 131 c -11.874,0 -21.5,-9.626 -21.5,-21.5 v -19.396 c 0,-11.874 9.626,-21.5 21.5,-21.5 h 303.5 v -32 z"
             inkscape:connector-curvature="0"
             style="fill:#a42b0f" />
          <path
             id="path894"
             d="m 193.467,63.104 h 180.382 v 80.72 H 193.467 Z"
             inkscape:connector-curvature="0"
             style="fill:#ffc85e" />
          <g
             id="g904">
            <path
               id="path896"
               d="m 434.5,0 h -322 C 89.065,0 70,19.059 70,42.485 V 451 c 0,33.635 27.364,61 61,61 h 303.5 c 4.143,0 7.5,-3.358 7.5,-7.5 v -32 c 0,-4.142 -3.357,-7.5 -7.5,-7.5 h -7.83 v -47.396 h 7.83 c 4.143,0 7.5,-3.358 7.5,-7.5 V 7.5 C 442,3.358 438.642,0 434.5,0 Z M 85,42.485 C 85,27.33 97.337,15 112.5,15 h 12.68 v 263.534 c 0,4.142 3.357,7.5 7.5,7.5 4.143,0 7.5,-3.358 7.5,-7.5 V 15 H 427 V 370.604 H 140.18 v -59.38 c 0,-4.142 -3.357,-7.5 -7.5,-7.5 -4.143,0 -7.5,3.358 -7.5,7.5 v 59.664 C 109.192,372.409 94.994,380.13 85,391.609 Z M 411.67,433.804 H 358 c -4.143,0 -7.5,3.358 -7.5,7.5 0,4.142 3.357,7.5 7.5,7.5 h 53.67 V 465 H 131 c -9.167,0 -14.875,-7.396 -14,-16.196 h 208.31 c 4.143,0 7.5,-3.358 7.5,-7.5 0,-4.142 -3.357,-7.5 -7.5,-7.5 H 117 c -0.875,-9.45 4.831,-16.2 14,-16.2 H 411.67 Z M 427,402.604 H 131 c -15.99,0 -29,13.009 -29,29 V 451 c 0,15.991 13.01,29 29,29 h 296 v 17 H 131 c -25.364,0 -46,-20.636 -46,-46 v -19.396 c 0,-25.364 20.636,-46 46,-46 h 296 z"
               inkscape:connector-curvature="0" />
            <path
               id="path898"
               d="m 193.469,151.324 h 180.38 c 4.143,0 7.5,-3.358 7.5,-7.5 v -80.72 c 0,-4.142 -3.357,-7.5 -7.5,-7.5 H 328.5 c -4.143,0 -7.5,3.358 -7.5,7.5 0,4.142 3.357,7.5 7.5,7.5 h 37.85 v 65.72 H 200.97 v -65.72 h 94.84 c 4.143,0 7.5,-3.358 7.5,-7.5 0,-4.142 -3.357,-7.5 -7.5,-7.5 H 193.47 c -4.143,0 -7.5,3.358 -7.5,7.5 v 80.72 c -0.001,4.142 3.357,7.5 7.499,7.5 z"
               inkscape:connector-curvature="0" />
            <path
               id="path900"
               d="m 341.658,241.592 h -116 c -4.143,0 -7.5,3.358 -7.5,7.5 0,4.142 3.357,7.5 7.5,7.5 h 116 c 4.143,0 7.5,-3.358 7.5,-7.5 0,-4.142 -3.357,-7.5 -7.5,-7.5 z"
               inkscape:connector-curvature="0" />
            <path
               id="path902"
               d="m 341.658,277.409 h -116 c -4.143,0 -7.5,3.358 -7.5,7.5 0,4.142 3.357,7.5 7.5,7.5 h 116 c 4.143,0 7.5,-3.358 7.5,-7.5 0,-4.142 -3.357,-7.5 -7.5,-7.5 z"
               inkscape:connector-curvature="0" />
          </g>
        </g>
      </g>
    </g>
  </g>
</svg>
